<svg width="38" height="38" viewBox="0 0 38 38" fill="none" xmlns="http://www.w3.org/2000/svg">
<path d="M3.16675 33.25H34.8334" stroke="#5F785C" stroke-width="2" stroke-linecap="round" stroke-linejoin="round"/>
<path d="M14.2502 17.4165H7.91683C7.04238 17.4165 6.3335 18.1254 6.3335 18.9998V31.6665C6.3335 32.541 7.04238 33.2498 7.91683 33.2498H14.2502C15.1246 33.2498 15.8335 32.541 15.8335 31.6665V18.9998C15.8335 18.1254 15.1246 17.4165 14.2502 17.4165Z" stroke="#5F785C" stroke-width="2" stroke-linejoin="round"/>
<path d="M30.0835 3.1665H17.4168C16.5424 3.1665 15.8335 3.87539 15.8335 4.74984V31.6665C15.8335 32.541 16.5424 33.2498 17.4168 33.2498H30.0835C30.9579 33.2498 31.6668 32.541 31.6668 31.6665V4.74984C31.6668 3.87539 30.9579 3.1665 30.0835 3.1665Z" stroke="#5F785C" stroke-width="2" stroke-linejoin="round"/>
<path d="M22.1667 25.3394H25.3333M9.5 25.3394H12.6667M22.1667 18.2144H25.3333M22.1667 11.0894H25.3333" stroke="#5F785C" stroke-width="2" stroke-linecap="round" stroke-linejoin="round"/>
</svg>
