<svg width="34" height="34" viewBox="0 0 34 34" fill="none" xmlns="http://www.w3.org/2000/svg">
<path d="M11.8442 1.11832C8.44703 2.29682 5.51735 4.53364 3.48545 7.50023C1.45354 10.4668 0.42651 14.0068 0.555208 17.6003C0.683906 21.1937 1.96155 24.6512 4.20047 27.4648C6.43939 30.2784 9.52158 32.2999 12.9943 33.2324C15.8097 33.9589 18.7595 33.9908 21.5899 33.3254C24.1541 32.7494 26.5247 31.5174 28.4696 29.75C30.4939 27.8544 31.9632 25.4429 32.7196 22.7747C33.5418 19.8732 33.6881 16.8219 33.1473 13.855H17.3373V20.4133H26.4934C26.3104 21.4593 25.9182 22.4577 25.3404 23.3486C24.7626 24.2395 24.011 25.0047 23.1306 25.5983C22.0125 26.3379 20.7521 26.8355 19.4304 27.0593C18.1048 27.3057 16.7451 27.3057 15.4195 27.0593C14.0759 26.7815 12.8049 26.2269 11.6874 25.431C9.89221 24.1602 8.54424 22.3548 7.83588 20.2725C7.11554 18.1512 7.11554 15.8515 7.83588 13.7302C8.3401 12.2433 9.17365 10.8894 10.2743 9.76973C11.5339 8.46484 13.1285 7.53209 14.8833 7.07384C16.6381 6.61558 18.4852 6.64951 20.222 7.17192C21.5787 7.58839 22.8194 8.31606 23.8451 9.29692C24.8775 8.26983 25.9081 7.24009 26.937 6.2077C27.4682 5.65254 28.0473 5.12395 28.5706 4.55551C27.0049 3.09849 25.1671 1.96475 23.1624 1.21926C19.512 -0.106236 15.5177 -0.141858 11.8442 1.11832Z" fill="white"/>
<path d="M11.8442 1.11827C15.5175 -0.142766 19.5117 -0.108082 23.1625 1.21655C25.1675 1.96711 27.0045 3.10631 28.568 4.56874C28.0367 5.13718 27.4763 5.66843 26.9344 6.22093C25.9038 7.24978 24.874 8.27509 23.8452 9.29686C22.8195 8.31601 21.5788 7.58834 20.2221 7.17186C18.4859 6.64763 16.6388 6.61173 14.8836 7.06812C13.1283 7.5245 11.5327 8.45553 10.2717 9.75905C9.17109 10.8788 8.33754 12.2326 7.83331 13.7195L2.3269 9.45624C4.29786 5.54773 7.71046 2.55802 11.8442 1.11827Z" fill="#E33629"/>
<path d="M0.865989 13.6797C1.16195 12.2129 1.65331 10.7925 2.32693 9.4563L7.83333 13.7302C7.113 15.8515 7.113 18.1513 7.83333 20.2725C5.99875 21.6892 4.16328 23.113 2.32693 24.5438C0.640607 21.1871 0.12631 17.3626 0.865989 13.6797Z" fill="#F8BD00"/>
<path d="M17.3374 13.8523H33.1474C33.6882 16.8191 33.5419 19.8705 32.7197 22.772C31.9633 25.4401 30.494 27.8517 28.4697 29.7473C26.6927 28.3607 24.9077 26.9848 23.1306 25.5982C24.0117 25.004 24.7636 24.238 25.3415 23.3461C25.9193 22.4542 26.3111 21.4549 26.4935 20.4079H17.3374C17.3347 18.2245 17.3374 16.0384 17.3374 13.8523Z" fill="#587DBD"/>
<path d="M2.32422 24.5437C4.16057 23.127 5.99604 21.7033 7.83063 20.2725C8.54039 22.3555 9.89029 24.1609 11.6875 25.4309C12.8085 26.2232 14.0822 26.7732 15.4275 27.0459C16.7531 27.2924 18.1128 27.2924 19.4384 27.0459C20.7602 26.8222 22.0205 26.3245 23.1386 25.585C24.9156 26.9715 26.7006 28.3475 28.4777 29.734C26.533 31.5024 24.1624 32.7353 21.598 33.312C18.7675 33.9774 15.8178 33.9455 13.0023 33.219C10.7756 32.6245 8.6957 31.5764 6.89297 30.1404C4.98488 28.6255 3.42644 26.7165 2.32422 24.5437Z" fill="#319F43"/>
</svg>
