<svg width="38" height="38" viewBox="0 0 38 38" fill="none" xmlns="http://www.w3.org/2000/svg">
<path d="M10.4817 17.0842C12.7617 21.565 16.435 25.2383 20.9158 27.5183L24.3992 24.035C24.8425 23.5917 25.46 23.465 26.0142 23.6392C27.7875 24.225 29.6875 24.5417 31.6667 24.5417C32.0866 24.5417 32.4893 24.7085 32.7863 25.0054C33.0832 25.3023 33.25 25.7051 33.25 26.125V31.6667C33.25 32.0866 33.0832 32.4893 32.7863 32.7863C32.4893 33.0832 32.0866 33.25 31.6667 33.25C24.5279 33.25 17.6816 30.4141 12.6337 25.3663C7.58585 20.3184 4.75 13.4721 4.75 6.33333C4.75 5.91341 4.91681 5.51068 5.21375 5.21375C5.51068 4.91681 5.91341 4.75 6.33333 4.75H11.875C12.2949 4.75 12.6977 4.91681 12.9946 5.21375C13.2915 5.51068 13.4583 5.91341 13.4583 6.33333C13.4583 8.3125 13.775 10.2125 14.3608 11.9858C14.535 12.54 14.4083 13.1575 13.965 13.6008L10.4817 17.0842Z" fill="#5F785C"/>
</svg>
