<svg width="38" height="38" viewBox="0 0 38 38" fill="none" xmlns="http://www.w3.org/2000/svg">
<path d="M18.9999 26.9166C19.8398 26.9166 20.6452 26.583 21.2391 25.9891C21.833 25.3952 22.1666 24.5898 22.1666 23.7499C22.1666 22.9101 21.833 22.1046 21.2391 21.5107C20.6452 20.9169 19.8398 20.5833 18.9999 20.5833C18.1601 20.5833 17.3546 20.9169 16.7607 21.5107C16.1669 22.1046 15.8333 22.9101 15.8333 23.7499C15.8333 24.5898 16.1669 25.3952 16.7607 25.9891C17.3546 26.583 18.1601 26.9166 18.9999 26.9166ZM28.4999 12.6666C29.3398 12.6666 30.1452 13.0002 30.7391 13.5941C31.333 14.1879 31.6666 14.9934 31.6666 15.8333V31.6666C31.6666 32.5064 31.333 33.3119 30.7391 33.9058C30.1452 34.4996 29.3398 34.8333 28.4999 34.8333H9.49992C8.66007 34.8333 7.85461 34.4996 7.26075 33.9058C6.66688 33.3119 6.33325 32.5064 6.33325 31.6666V15.8333C6.33325 14.9934 6.66688 14.1879 7.26075 13.5941C7.85461 13.0002 8.66007 12.6666 9.49992 12.6666H11.0833V9.49992C11.0833 7.40029 11.9173 5.38665 13.402 3.90199C14.8867 2.41733 16.9003 1.58325 18.9999 1.58325C20.0395 1.58325 21.069 1.78802 22.0295 2.18587C22.99 2.58372 23.8627 3.16686 24.5978 3.90199C25.333 4.63712 25.9161 5.50985 26.314 6.47034C26.7118 7.43084 26.9166 8.46029 26.9166 9.49992V12.6666H28.4999ZM18.9999 4.74992C17.7401 4.74992 16.532 5.25036 15.6412 6.14116C14.7504 7.03196 14.2499 8.24014 14.2499 9.49992V12.6666H23.7499V9.49992C23.7499 8.24014 23.2495 7.03196 22.3587 6.14116C21.4679 5.25036 20.2597 4.74992 18.9999 4.74992Z" fill="#5F785C"/>
</svg>
