<svg width="36" height="36" viewBox="0 0 36 36" fill="none" xmlns="http://www.w3.org/2000/svg">
<path d="M18 25.5C17.2044 25.5 16.4413 25.1839 15.8787 24.6213C15.3161 24.0587 15 23.2956 15 22.5C15 20.835 16.335 19.5 18 19.5C18.7956 19.5 19.5587 19.8161 20.1213 20.3787C20.6839 20.9413 21 21.7044 21 22.5C21 23.2956 20.6839 24.0587 20.1213 24.6213C19.5587 25.1839 18.7956 25.5 18 25.5ZM27 30V15H9V30H27ZM27 12C27.7956 12 28.5587 12.3161 29.1213 12.8787C29.6839 13.4413 30 14.2044 30 15V30C30 30.7956 29.6839 31.5587 29.1213 32.1213C28.5587 32.6839 27.7956 33 27 33H9C8.20435 33 7.44129 32.6839 6.87868 32.1213C6.31607 31.5587 6 30.7956 6 30V15C6 13.335 7.335 12 9 12H10.5V9C10.5 7.01088 11.2902 5.10322 12.6967 3.6967C14.1032 2.29018 16.0109 1.5 18 1.5C18.9849 1.5 19.9602 1.69399 20.8701 2.0709C21.7801 2.44781 22.6069 3.00026 23.3033 3.6967C23.9997 4.39314 24.5522 5.21993 24.9291 6.12987C25.306 7.03982 25.5 8.01509 25.5 9V12H27ZM18 4.5C16.8065 4.5 15.6619 4.97411 14.818 5.81802C13.9741 6.66193 13.5 7.80653 13.5 9V12H22.5V9C22.5 7.80653 22.0259 6.66193 21.182 5.81802C20.3381 4.97411 19.1935 4.5 18 4.5Z" fill="#042C00" fill-opacity="0.64"/>
</svg>
