<svg width="38" height="38" viewBox="0 0 38 38" fill="none" xmlns="http://www.w3.org/2000/svg">
<path d="M18.9999 6.33325C20.6796 6.33325 22.2905 7.00051 23.4783 8.18824C24.666 9.37597 25.3333 10.9869 25.3333 12.6666C25.3333 14.3463 24.666 15.9572 23.4783 17.1449C22.2905 18.3327 20.6796 18.9999 18.9999 18.9999C17.3202 18.9999 15.7093 18.3327 14.5216 17.1449C13.3338 15.9572 12.6666 14.3463 12.6666 12.6666C12.6666 10.9869 13.3338 9.37597 14.5216 8.18824C15.7093 7.00051 17.3202 6.33325 18.9999 6.33325ZM18.9999 9.49992C18.1601 9.49992 17.3546 9.83355 16.7607 10.4274C16.1669 11.0213 15.8333 11.8267 15.8333 12.6666C15.8333 13.5064 16.1669 14.3119 16.7607 14.9058C17.3546 15.4996 18.1601 15.8333 18.9999 15.8333C19.8398 15.8333 20.6452 15.4996 21.2391 14.9058C21.833 14.3119 22.1666 13.5064 22.1666 12.6666C22.1666 11.8267 21.833 11.0213 21.2391 10.4274C20.6452 9.83355 19.8398 9.49992 18.9999 9.49992ZM18.9999 20.5833C23.2274 20.5833 31.6666 22.6891 31.6666 26.9166V31.6666H6.33325V26.9166C6.33325 22.6891 14.7724 20.5833 18.9999 20.5833ZM18.9999 23.5916C14.2974 23.5916 9.34159 25.9033 9.34159 26.9166V28.6583H28.6583V26.9166C28.6583 25.9033 23.7024 23.5916 18.9999 23.5916Z" fill="#5F785C"/>
</svg>
